#!OML:ASF H:\Terrain\Walking\May29\JustinRory\Justin.ASF
:FULLY-SPECIFIED
:DEGREES
1402
root 11.253970259481038 17.822725548902195 11.872431956087825 -172.6540259481038 -113.42231477045908 -87.31739321357287 
lowerback 3.6484978842315368 -2.2299222155688625 -7.265634091816366 
upperback 1.8885380638722555 -3.2588195608782433 0.43360830538922157 
thorax 0.42341647105788427 -1.730110618762475 4.621455808383233 
lowerneck -11.638119568862276 -5.685523313373253 -11.723601317365269 
upperneck 22.398629341317367 -6.959192638722554 3.6453286147704596 
head 10.20785508982036 -4.205407944111776 2.355360738522954 
rclavicle 1.0446678043912177e-13 -1.5754963073852295e-14 
rhumerus -33.49462634730539 -18.389140319361278 -66.8108245508982 
rradius 31.098102994011978 
rwrist -17.179252095808383 
rhand -18.7737846506986 22.89205848303393 
rfingers 7.12502 
rthumb 7.51964866267465 -6.865883193612775 
lclavicle 1.0446678043912177e-13 -1.5754963073852295e-14 
lhumerus -30.28580878243513 12.942550958083833 70.93299301397205 
lradius 28.601971656686626 
lwrist -5.882023493013972 
lhand -3.6552794610778445 40.81027385229541 
lfingers 7.12502 
lthumb 22.082315768463076 69.54048243512975 
rfemur -28.939630339321358 -4.073565668662675 20.548817704590817 
rtibia 21.730191017964074 
rfoot -6.8640499001996 0.011281736526946862 
rtoes -1.4489829341317368 
lfemur 0.19964654690618833 -3.0075378043912186 -26.34634371257485 
ltibia 19.820660678642714 
lfoot -14.882978043912175 -11.400904071856289 
ltoes 19.977566886227542 
1403
root 11.256830938123752 17.82233852295409 11.855120918163673 -172.62009381237525 -113.30674570858284 -86.63296007984033 
lowerback 3.652906966067864 -2.2324118562874253 -7.282911716566867 
upperback 1.8910468463073853 -3.2632391816367265 0.43512479640718565 
thorax 0.42567724151696607 -1.7328006986027944 4.632949461077844 
lowerneck -11.603948287425151 -5.708818902195608 -11.73706245508982 
upperneck 22.39171377245509 -7.005071463073851 3.6796111457085825 
head 10.20772994011976 -4.226040259481039 2.3640572854291415 
rclavicle 1.0430559081836328e-13 -1.5758335728542916e-14 
rhumerus -33.49344910179641 -18.392984231536925 -66.8198502994012 
rradius 31.105664670658683 
rwrist -17.175865269461077 
rhand -18.746119121756486 22.8918499001996 
rfingers 7.12502 
rthumb 7.546329780439121 -6.864702315369262 
lclavicle 1.0430559081836328e-13 -1.5758335728542916e-14 
lhumerus -30.26681636726547 12.92639269461078 70.96358243512974 
lradius 28.600774451097802 
lwrist -5.89116878243513 
lhand -3.641810359281437 40.80672854291417 
lfingers 7.12502 
lthumb 22.095233932135727 69.53526726546906 
rfemur -28.927401996007983 -4.078295109780439 20.510917085828343 
rtibia 21.782805988023952 
rfoot -6.887761177644711 -0.012354491017963376 
rtoes -1.4298313772455091 
lfemur 0.16970674650698658 -2.9727959081836337 -26.341404191616768 
ltibia 19.848603992015967 
lfoot -14.895059081836328 -11.346243952095808 
ltoes 19.91720874251497 
1404
root 11.259691616766467 17.821951497005987 11.83780988023952 -172.5861616766467 -113.1911766467066 -85.9485269461078 
lowerback 3.6573160479041915 -2.234901497005988 -7.300189341317365 
upperback 1.893555628742515 -3.2676588023952093 0.43664128742514974 
thorax 0.4279380119760479 -1.7354907784431137 4.644443113772455 
lowerneck -11.569777005988024 -5.732114491017963 -11.750523592814371 
upperneck 22.384798203592815 -7.050950287425149 3.7138936766467063 
head 10.207604790419163 -4.246672574850299 2.372753832335329 
rclavicle 1.0414440119760479e-13 -1.5761708383233534e-14 
rhumerus -33.492271856287424 -18.396828143712575 -66.82887604790419 
rradius 31.11322634730539 
rwrist -17.17247844311377 
rhand -18.71845359281437 22.89164131736527 
rfingers 7.12502 
rthumb 7.573010898203593 -6.8635214371257485 
lclavicle 1.0414440119760479e-13 -1.5761708383233534e-14 
lhumerus -30.247823952095807 12.910234431137726 70.99417185628742 
lradius 28.599577245508982 
lwrist -5.900314071856288 
lhand -3.62834125748503 40.803183233532934 
lfingers 7.12502 
lthumb 22.108152095808382 69.53005209580839 
rfemur -28.91517365269461 -4.0830245508982035 20.473016467065868 
rtibia 21.835420958083834 
rfoot -6.91147245508982 -0.035990718562873614 
rtoes -1.4106798203592819 
lfemur 0.13976694610778484 -2.9380540119760488 -26.336464670658682 
ltibia 19.87654730538922 
lfoot -14.907140119760479 -11.29158383233533 
ltoes 19.856850598802396 
1405
root 11.262552295409181 17.821564471057883 11.82049884231537 -172.55222954091818 -113.07560758483035 -85.26409381237526 
lowerback 3.661725129740519 -2.237391137724551 -7.3174669660678635 
upperback 1.8960644111776448 -3.2720784231536926 0.43815777844311377 
thorax 0.43019878243512977 -1.738180858283433 4.6559367664670654 
lowerneck -11.535605724550898 -5.755410079840319 -11.763984730538922 
upperneck 22.37788263473054 -7.096829111776446 3.74817620758483 
head 10.207479640718564 -4.267304890219561 2.381450379241517 
rclavicle 1.039832115768463e-13 -1.576508103792415e-14 
rhumerus -33.49109461077845 -18.400672055888222 -66.83790179640718 
rradius 31.120788023952098 
rwrist -17.169091616766465 
rhand -18.690788063872255 22.891432734530937 
rfingers 7.12502 
rthumb 7.599692015968063 -6.862340558882236 
lclavicle 1.039832115768463e-13 -1.576508103792415e-14 
lhumerus -30.228831536926148 12.894076167664672 71.02476127744511 
lradius 28.59838003992016 
lwrist -5.909459361277445 
lhand -3.614872155688623 40.799637924151696 
lfingers 7.12502 
lthumb 22.121070259481037 69.5248369261477 
rfemur -28.902945309381238 -4.087753992015968 20.435115848303393 
rtibia 21.888035928143715 
rfoot -6.935183732534929 -0.05962694610778385 
rtoes -1.3915282634730541 
lfemur 0.1098271457085831 -2.903312115768464 -26.3315251497006 
ltibia 19.904490618762473 
lfoot -14.91922115768463 -11.23692371257485 
ltoes 19.79649245508982 
